# xmcd
#
# Track frame offsets:
#	150
#	5415
#	20195
#	40137
#	59735
#	78822
#	92740
#	105477
#	119675
#	144970
#	156510
#	180405
#
# Disc length: 2644 seconds
#
# Revision: 1
# Processed by: cddbd v1.5.1PL0 Copyright (c) Steve Scherf et al.
# Submitted via: CDex 1.50Beta5
#
DISCID=9a0a520c
DTITLE=ペンギンノイズ - Perfect Morning Call
DYEAR=1999
DGENRE=Rock
TTITLE0=Perfect Morning Call
TTITLE1=Howling
TTITLE2=My Life
TTITLE3=Water Dance
TTITLE4=青い雫
TTITLE5=Urgent
TTITLE6=Like A Butterfly
TTITLE7=Automatic Beltconveyor
TTITLE8=Dracula
TTITLE9=Again
TTITLE10=Space
TTITLE11=Puzzle
EXTD=
EXTT0=
EXTT1=
EXTT2=
EXTT3=
EXTT4=
EXTT5=
EXTT6=
EXTT7=
EXTT8=
EXTT9=
EXTT10=
EXTT11=
PLAYORDER=
